<!DOCTYPE svg PUBLIC "-//W3C//DTD SVG 1.1//EN" "http://www.w3.org/Graphics/SVG/1.1/DTD/svg11.dtd">
<!-- Uploaded to: SVG Repo, www.svgrepo.com, Transformed by: SVG Repo Mixer Tools -->
<svg width="90px" height="90px" viewBox="0 0 47.00 47.00" version="1.1" xmlns="http://www.w3.org/2000/svg" xmlns:xlink="http://www.w3.org/1999/xlink" fill="#ffffff" stroke="#ffffff" transform="matrix(1, 0, 0, 1, 0, 0)">
<g id="SVGRepo_bgCarrier" stroke-width="0"/>
<g id="SVGRepo_tracerCarrier" stroke-linecap="round" stroke-linejoin="round" stroke="#CCCCCC" stroke-width="0.8459999999999999"/>
<g id="SVGRepo_iconCarrier"> <title>Flickr-color</title> <desc>Created with Sketch.</desc> <defs> </defs> <g id="Icons" stroke="none" stroke-width="1" fill="none" fill-rule="evenodd"> <g id="Color-" transform="translate(-501.000000, -474.000000)"> <g id="Flickr" transform="translate(501.000000, 474.000000)"> <path d="M46.8292683,10.1695828 C46.8292683,15.7864719 42.2171072,20.3418803 36.5173021,20.3418803 C30.8119899,20.3418803 26.1970752,15.7864719 26.1970752,10.1695828 C26.1970752,4.55540841 30.8119899,0 36.5173021,0 C42.2171072,0 46.8292683,4.55540841 46.8292683,10.1695828" fill="#FF007F"> </path> <path d="M20.6294395,10.1695828 C20.6294395,15.7864719 16.0145249,20.3418803 10.3092127,20.3418803 C4.61216113,20.3418803 0,15.7864719 0,10.1695828 C0,4.55540841 4.61216113,0 10.3092127,0 C16.0145249,0 20.6294395,4.55540841 20.6294395,10.1695828" fill="#0960D5"> </path> </g> </g> </g> </g>
</svg>